<mxfile host="app.diagrams.net" modified="2020-07-20T16:36:55.853Z" agent="5.0 (Macintosh; Intel Mac OS X 10_15_5) AppleWebKit/537.36 (KHTML, like Gecko) Chrome/83.0.4103.116 Safari/537.36" etag="n3f1FExfRH_iUoR5PATQ" version="13.4.6" type="github">
  <diagram id="QclkvhL8sMKdoNhH3X_i" name="Page-1">
    <mxGraphModel dx="2066" dy="1105" grid="1" gridSize="10" guides="1" tooltips="1" connect="1" arrows="1" fold="1" page="1" pageScale="1" pageWidth="827" pageHeight="1169" math="0" shadow="0">
      <root>
        <mxCell id="0" />
        <mxCell id="1" parent="0" />
        <mxCell id="z9itAAdNxplEFkAqOmmv-1" value="" style="shape=table;html=1;whiteSpace=wrap;startSize=0;container=1;collapsible=0;childLayout=tableLayout;" vertex="1" parent="1">
          <mxGeometry x="260" y="500" width="420" height="40" as="geometry" />
        </mxCell>
        <mxCell id="z9itAAdNxplEFkAqOmmv-2" value="" style="shape=partialRectangle;html=1;whiteSpace=wrap;collapsible=0;dropTarget=0;pointerEvents=0;fillColor=none;top=0;left=0;bottom=0;right=0;points=[[0,0.5],[1,0.5]];portConstraint=eastwest;" vertex="1" parent="z9itAAdNxplEFkAqOmmv-1">
          <mxGeometry width="420" height="40" as="geometry" />
        </mxCell>
        <mxCell id="z9itAAdNxplEFkAqOmmv-3" value="" style="shape=partialRectangle;html=1;whiteSpace=wrap;connectable=0;overflow=hidden;fillColor=#dae8fc;top=0;left=0;bottom=0;right=0;strokeColor=#6c8ebf;" vertex="1" parent="z9itAAdNxplEFkAqOmmv-2">
          <mxGeometry width="60" height="40" as="geometry" />
        </mxCell>
        <mxCell id="z9itAAdNxplEFkAqOmmv-4" value="" style="shape=partialRectangle;html=1;whiteSpace=wrap;connectable=0;overflow=hidden;fillColor=#e1d5e7;top=0;left=0;bottom=0;right=0;strokeColor=#9673a6;" vertex="1" parent="z9itAAdNxplEFkAqOmmv-2">
          <mxGeometry x="60" width="20" height="40" as="geometry" />
        </mxCell>
        <mxCell id="z9itAAdNxplEFkAqOmmv-5" value="" style="shape=partialRectangle;html=1;whiteSpace=wrap;connectable=0;overflow=hidden;fillColor=#dae8fc;top=0;left=0;bottom=0;right=0;strokeColor=#6c8ebf;" vertex="1" parent="z9itAAdNxplEFkAqOmmv-2">
          <mxGeometry x="80" width="70" height="40" as="geometry" />
        </mxCell>
        <mxCell id="z9itAAdNxplEFkAqOmmv-6" value="" style="shape=partialRectangle;html=1;whiteSpace=wrap;connectable=0;overflow=hidden;fillColor=#e1d5e7;top=0;left=0;bottom=0;right=0;strokeColor=#9673a6;" vertex="1" parent="z9itAAdNxplEFkAqOmmv-2">
          <mxGeometry x="150" width="20" height="40" as="geometry" />
        </mxCell>
        <mxCell id="z9itAAdNxplEFkAqOmmv-7" value="" style="shape=partialRectangle;html=1;whiteSpace=wrap;connectable=0;overflow=hidden;fillColor=#dae8fc;top=0;left=0;bottom=0;right=0;strokeColor=#6c8ebf;" vertex="1" parent="z9itAAdNxplEFkAqOmmv-2">
          <mxGeometry x="170" width="170" height="40" as="geometry" />
        </mxCell>
        <mxCell id="z9itAAdNxplEFkAqOmmv-8" value="" style="shape=partialRectangle;html=1;whiteSpace=wrap;connectable=0;overflow=hidden;fillColor=#e1d5e7;top=0;left=0;bottom=0;right=0;strokeColor=#9673a6;" vertex="1" parent="z9itAAdNxplEFkAqOmmv-2">
          <mxGeometry x="340" width="40" height="40" as="geometry" />
        </mxCell>
        <mxCell id="z9itAAdNxplEFkAqOmmv-9" value="" style="shape=partialRectangle;html=1;whiteSpace=wrap;connectable=0;overflow=hidden;fillColor=#dae8fc;top=0;left=0;bottom=0;right=0;strokeColor=#6c8ebf;" vertex="1" parent="z9itAAdNxplEFkAqOmmv-2">
          <mxGeometry x="380" width="40" height="40" as="geometry" />
        </mxCell>
        <mxCell id="z9itAAdNxplEFkAqOmmv-10" value="" style="endArrow=classic;html=1;strokeWidth=2;entryX=0;entryY=0.5;entryDx=0;entryDy=0;" edge="1" parent="1" target="z9itAAdNxplEFkAqOmmv-2">
          <mxGeometry width="50" height="50" relative="1" as="geometry">
            <mxPoint x="200" y="450" as="sourcePoint" />
            <mxPoint x="290" y="450" as="targetPoint" />
          </mxGeometry>
        </mxCell>
        <mxCell id="z9itAAdNxplEFkAqOmmv-11" value="" style="endArrow=classic;html=1;strokeWidth=2;entryX=0.16;entryY=0;entryDx=0;entryDy=0;entryPerimeter=0;" edge="1" parent="1" target="z9itAAdNxplEFkAqOmmv-2">
          <mxGeometry width="50" height="50" relative="1" as="geometry">
            <mxPoint x="310" y="450" as="sourcePoint" />
            <mxPoint x="360" y="440" as="targetPoint" />
            <Array as="points" />
          </mxGeometry>
        </mxCell>
        <mxCell id="z9itAAdNxplEFkAqOmmv-12" value="CPU Burst" style="text;html=1;align=center;verticalAlign=middle;resizable=0;points=[];autosize=1;" vertex="1" parent="1">
          <mxGeometry x="145" y="410" width="70" height="20" as="geometry" />
        </mxCell>
        <mxCell id="z9itAAdNxplEFkAqOmmv-13" value="CPU idle due to I/O operation" style="text;html=1;align=center;verticalAlign=middle;resizable=0;points=[];autosize=1;" vertex="1" parent="1">
          <mxGeometry x="230" y="420" width="170" height="20" as="geometry" />
        </mxCell>
        <mxCell id="z9itAAdNxplEFkAqOmmv-23" value="" style="endArrow=classic;html=1;strokeWidth=2;entryX=0;entryY=0.5;entryDx=0;entryDy=0;" edge="1" parent="1" target="z9itAAdNxplEFkAqOmmv-15">
          <mxGeometry width="50" height="50" relative="1" as="geometry">
            <mxPoint x="200" y="610" as="sourcePoint" />
            <mxPoint x="290" y="610" as="targetPoint" />
          </mxGeometry>
        </mxCell>
        <mxCell id="z9itAAdNxplEFkAqOmmv-24" value="" style="endArrow=classic;html=1;strokeWidth=2;entryX=0.19;entryY=0;entryDx=0;entryDy=0;entryPerimeter=0;" edge="1" parent="1" target="z9itAAdNxplEFkAqOmmv-15">
          <mxGeometry width="50" height="50" relative="1" as="geometry">
            <mxPoint x="310" y="610" as="sourcePoint" />
            <mxPoint x="360" y="600" as="targetPoint" />
          </mxGeometry>
        </mxCell>
        <mxCell id="z9itAAdNxplEFkAqOmmv-25" value="CPU Burst" style="text;html=1;align=center;verticalAlign=middle;resizable=0;points=[];autosize=1;" vertex="1" parent="1">
          <mxGeometry x="145" y="570" width="70" height="20" as="geometry" />
        </mxCell>
        <mxCell id="z9itAAdNxplEFkAqOmmv-26" value="CPU idle due to I/O operation" style="text;html=1;align=center;verticalAlign=middle;resizable=0;points=[];autosize=1;" vertex="1" parent="1">
          <mxGeometry x="230" y="580" width="170" height="20" as="geometry" />
        </mxCell>
        <mxCell id="z9itAAdNxplEFkAqOmmv-14" value="" style="shape=table;html=1;whiteSpace=wrap;startSize=0;container=1;collapsible=0;childLayout=tableLayout;" vertex="1" parent="1">
          <mxGeometry x="260" y="660" width="420" height="40" as="geometry" />
        </mxCell>
        <mxCell id="z9itAAdNxplEFkAqOmmv-15" value="" style="shape=partialRectangle;html=1;whiteSpace=wrap;collapsible=0;dropTarget=0;pointerEvents=0;fillColor=none;top=0;left=0;bottom=0;right=0;points=[[0,0.5],[1,0.5]];portConstraint=eastwest;" vertex="1" parent="z9itAAdNxplEFkAqOmmv-14">
          <mxGeometry width="420" height="40" as="geometry" />
        </mxCell>
        <mxCell id="z9itAAdNxplEFkAqOmmv-16" value="" style="shape=partialRectangle;html=1;whiteSpace=wrap;connectable=0;overflow=hidden;fillColor=#dae8fc;top=0;left=0;bottom=0;right=0;strokeColor=#6c8ebf;" vertex="1" parent="z9itAAdNxplEFkAqOmmv-15">
          <mxGeometry width="20" height="40" as="geometry" />
        </mxCell>
        <mxCell id="z9itAAdNxplEFkAqOmmv-17" value="" style="shape=partialRectangle;html=1;whiteSpace=wrap;connectable=0;overflow=hidden;fillColor=#e1d5e7;top=0;left=0;bottom=0;right=0;strokeColor=#9673a6;" vertex="1" parent="z9itAAdNxplEFkAqOmmv-15">
          <mxGeometry x="20" width="80" height="40" as="geometry" />
        </mxCell>
        <mxCell id="z9itAAdNxplEFkAqOmmv-18" value="" style="shape=partialRectangle;html=1;whiteSpace=wrap;connectable=0;overflow=hidden;fillColor=#dae8fc;top=0;left=0;bottom=0;right=0;strokeColor=#6c8ebf;" vertex="1" parent="z9itAAdNxplEFkAqOmmv-15">
          <mxGeometry x="100" width="20" height="40" as="geometry" />
        </mxCell>
        <mxCell id="z9itAAdNxplEFkAqOmmv-19" value="" style="shape=partialRectangle;html=1;whiteSpace=wrap;connectable=0;overflow=hidden;fillColor=#e1d5e7;top=0;left=0;bottom=0;right=0;strokeColor=#9673a6;" vertex="1" parent="z9itAAdNxplEFkAqOmmv-15">
          <mxGeometry x="120" width="110" height="40" as="geometry" />
        </mxCell>
        <mxCell id="z9itAAdNxplEFkAqOmmv-20" value="" style="shape=partialRectangle;html=1;whiteSpace=wrap;connectable=0;overflow=hidden;fillColor=#dae8fc;top=0;left=0;bottom=0;right=0;strokeColor=#6c8ebf;" vertex="1" parent="z9itAAdNxplEFkAqOmmv-15">
          <mxGeometry x="230" width="20" height="40" as="geometry" />
        </mxCell>
        <mxCell id="z9itAAdNxplEFkAqOmmv-21" value="" style="shape=partialRectangle;html=1;whiteSpace=wrap;connectable=0;overflow=hidden;fillColor=#e1d5e7;top=0;left=0;bottom=0;right=0;strokeColor=#9673a6;" vertex="1" parent="z9itAAdNxplEFkAqOmmv-15">
          <mxGeometry x="250" width="150" height="40" as="geometry" />
        </mxCell>
        <mxCell id="z9itAAdNxplEFkAqOmmv-22" value="" style="shape=partialRectangle;html=1;whiteSpace=wrap;connectable=0;overflow=hidden;fillColor=#dae8fc;top=0;left=0;bottom=0;right=0;strokeColor=#6c8ebf;" vertex="1" parent="z9itAAdNxplEFkAqOmmv-15">
          <mxGeometry x="400" width="20" height="40" as="geometry" />
        </mxCell>
        <mxCell id="2" value="CPU Bound" style="text;html=1;align=center;verticalAlign=middle;resizable=0;points=[];autosize=1;" vertex="1" parent="1">
          <mxGeometry x="440" y="450" width="80" height="20" as="geometry" />
        </mxCell>
        <mxCell id="z9itAAdNxplEFkAqOmmv-27" value="I/O Bound" style="text;html=1;align=center;verticalAlign=middle;resizable=0;points=[];autosize=1;" vertex="1" parent="1">
          <mxGeometry x="445" y="620" width="70" height="20" as="geometry" />
        </mxCell>
      </root>
    </mxGraphModel>
  </diagram>
</mxfile>
